<svg width="50" height="50" xmlns="http://www.w3.org/2000/svg">

 <g>
  <title>background</title>
  <rect fill="none" id="canvas_background" height="402" width="582" y="-1" x="-1"/>
 </g>
 <g>
  <title>Layer 1</title>
  <path fill="#f87190" id="svg_1" d="m25,3c-12.13842,0 -22,9.86158 -22,22c0,12.13842 9.86158,22 22,22c12.13842,0 22,-9.86158 22,-22c0,-12.13842 -9.86158,-22 -22,-22zm0,2c11.05754,0 20,8.94246 20,20c0,11.05754 -8.94246,20 -20,20c-11.05754,0 -20,-8.94246 -20,-20c0,-11.05754 8.94246,-20 20,-20zm-8.00977,10.99023a1.0001,1.0001 0 0 0 -0.69726,1.7168l7.29297,7.29297l-7.29297,7.29297a1.0001,1.0001 0 1 0 1.41406,1.41406l7.29297,-7.29297l7.29297,7.29297a1.0001,1.0001 0 1 0 1.41406,-1.41406l-7.29297,-7.29297l7.29297,-7.29297a1.0001,1.0001 0 0 0 -0.72656,-1.7168a1.0001,1.0001 0 0 0 -0.6875,0.30274l-7.29297,7.29297l-7.29297,-7.29297a1.0001,1.0001 0 0 0 -0.7168,-0.30274z"/>
 </g>
</svg>